<?xml version="1.0" standalone="no"?>
<!DOCTYPE svg PUBLIC "-//W3C//DTD SVG 20010904//EN"
 "http://www.w3.org/TR/2001/REC-SVG-20010904/DTD/svg10.dtd">
<svg version="1.0" xmlns="http://www.w3.org/2000/svg"
 width="290.000000pt" height="290.000000pt" viewBox="0 0 290.000000 290.000000"
 preserveAspectRatio="xMidYMid meet">
<metadata>
Created by potrace 1.11, written by Peter Selinger 2001-2013
</metadata>
<g transform="translate(0.000000,290.000000) scale(0.100000,-0.100000)"
fill="#000000" stroke="none">
<path d="M0 1450 l0 -1450 1450 0 1450 0 0 1450 0 1450 -1450 0 -1450 0 0
-1450z m1890 1149 c30 -11 94 -41 141 -66 305 -160 519 -447 595 -798 23 -109
23 -341 0 -450 -97 -449 -408 -779 -848 -901 -73 -20 -125 -27 -242 -31 -147
-6 -310 8 -322 28 -4 7 32 161 62 260 4 14 11 15 47 7 93 -22 397 -6 397 21 0
4 -61 138 -136 297 -75 159 -137 294 -137 301 -1 27 107 413 113 406 4 -5 98
-204 210 -443 112 -239 204 -437 206 -439 8 -9 120 88 169 145 279 329 285
791 17 1125 -108 134 -237 222 -418 283 -17 6 57 276 76 276 8 0 40 -9 70 -21z
m-266 -13 c38 -9 71 -18 75 -21 6 -7 -57 -256 -68 -268 -4 -4 -36 -1 -72 8
-108 25 -371 15 -403 -16 -6 -5 52 -138 144 -335 l154 -327 -28 -106 c-16 -58
-41 -153 -56 -211 l-28 -105 -62 130 c-34 72 -134 285 -222 475 -89 190 -164
348 -168 353 -10 11 -135 -97 -186 -161 -249 -315 -261 -742 -29 -1068 99
-139 270 -264 430 -315 49 -15 74 -28 71 -36 -3 -7 -20 -68 -37 -135 -18 -68
-34 -125 -35 -127 -7 -9 -153 44 -243 90 -304 152 -521 423 -608 758 -34 133
-43 341 -19 470 91 494 466 871 953 956 98 18 341 12 437 -9z"/>
</g>
</svg>
